<svg width="40" height="40" viewBox="0 0 40 40" fill="none" xmlns="http://www.w3.org/2000/svg">
  <!-- Background circle with gradient -->
  <defs>
    <linearGradient id="logoGradient" x1="0%" y1="0%" x2="100%" y2="100%">
      <stop offset="0%" style="stop-color:#667eea;stop-opacity:1" />
      <stop offset="100%" style="stop-color:#764ba2;stop-opacity:1" />
    </linearGradient>
    <linearGradient id="sparkleGradient" x1="0%" y1="0%" x2="100%" y2="100%">
      <stop offset="0%" style="stop-color:#ffd700;stop-opacity:1" />
      <stop offset="100%" style="stop-color:#ffed4e;stop-opacity:1" />
    </linearGradient>
  </defs>
  
  <!-- Main circle background -->
  <circle cx="20" cy="20" r="18" fill="url(#logoGradient)" stroke="white" stroke-width="2"/>
  
  <!-- Cleaning spray/sparkle icon -->
  <g transform="translate(8, 8)">
    <!-- Spray bottle outline -->
    <path d="M8 4h2v2h-2V4zm-1 3h4v10c0 1-1 2-2 2s-2-1-2-2V7z" fill="white" opacity="0.9"/>
    <rect x="7" y="2" width="4" height="2" rx="1" fill="white"/>
    <rect x="8.5" y="0.5" width="1" height="2" fill="white"/>
    
    <!-- Sparkles/bubbles -->
    <g fill="url(#sparkleGradient)">
      <circle cx="14" cy="6" r="1.5"/>
      <circle cx="16" cy="10" r="1"/>
      <circle cx="2" cy="8" r="1"/>
      <circle cx="4" cy="12" r="1.5"/>
      <circle cx="15" cy="14" r="1"/>
      <circle cx="1" cy="14" r="1"/>
      
      <!-- Star sparkles -->
      <g transform="translate(12, 4)">
        <path d="M0,-2 L0.5,0 L2,0 L0.7,1 L1,3 L0,2 L-1,3 L-0.7,1 L-2,0 L-0.5,0 Z" fill="url(#sparkleGradient)" transform="scale(0.3)"/>
      </g>
      <g transform="translate(3, 6)">
        <path d="M0,-2 L0.5,0 L2,0 L0.7,1 L1,3 L0,2 L-1,3 L-0.7,1 L-2,0 L-0.5,0 Z" fill="url(#sparkleGradient)" transform="scale(0.4)"/>
      </g>
    </g>
  </g>
</svg>
